=> Loading Rails...
[memcache-client] Could not load SystemTimer gem, falling back to Ruby's slower/unsafe timeout library: no such file to load -- system_timer
/Users/Oliver/Documents/rails_projects/iPortfolio/hosted/config/initializers/gateway.rb:1: warning: already initialized constant RAILS_ENV
** Rails loaded.
** Starting Workling::Remote::Invokers::ThreadedPoller...
** Use CTRL-C to stop.
** Exiting
=> Loading Rails...
[memcache-client] Could not load SystemTimer gem, falling back to Ruby's slower/unsafe timeout library: no such file to load -- system_timer
/Users/Oliver/Documents/rails_projects/iPortfolio/hosted/config/initializers/gateway.rb:1: warning: already initialized constant RAILS_ENV
** Rails loaded.
** Starting Workling::Remote::Invokers::ThreadedPoller...
** Use CTRL-C to stop.
** Exiting
=> Loading Rails...
[memcache-client] Could not load SystemTimer gem, falling back to Ruby's slower/unsafe timeout library: no such file to load -- system_timer
/Users/Oliver/Documents/rails_projects/iPortfolio/hosted/config/initializers/gateway.rb:1: warning: already initialized constant RAILS_ENV
** Rails loaded.
** Starting Workling::Remote::Invokers::ThreadedPoller...
** Use CTRL-C to stop.
** Exiting
=> Loading Rails...
[memcache-client] Could not load SystemTimer gem, falling back to Ruby's slower/unsafe timeout library: no such file to load -- system_timer
/Users/Oliver/Documents/rails_projects/iPortfolio/hosted/config/initializers/gateway.rb:1: warning: already initialized constant RAILS_ENV
** Rails loaded.
** Starting Workling::Remote::Invokers::ThreadedPoller...
** Use CTRL-C to stop.
** Exiting
=> Loading Rails...
[memcache-client] Could not load SystemTimer gem, falling back to Ruby's slower/unsafe timeout library: no such file to load -- system_timer
/Users/Oliver/Documents/rails_projects/iPortfolio/hosted/config/initializers/gateway.rb:1: warning: already initialized constant RAILS_ENV
** Rails loaded.
** Starting Workling::Remote::Invokers::ThreadedPoller...
** Use CTRL-C to stop.
** Exiting
=> Loading Rails...
[memcache-client] Could not load SystemTimer gem, falling back to Ruby's slower/unsafe timeout library: no such file to load -- system_timer
/Users/Oliver/Documents/rails_projects/iPortfolio/hosted/config/initializers/gateway.rb:1: warning: already initialized constant RAILS_ENV
** Rails loaded.
** Starting Workling::Remote::Invokers::ThreadedPoller...
** Use CTRL-C to stop.
** Exiting
=> Loading Rails...
[memcache-client] Could not load SystemTimer gem, falling back to Ruby's slower/unsafe timeout library: no such file to load -- system_timer
/Users/Oliver/Documents/rails_projects/iPortfolio/hosted/config/initializers/gateway.rb:1: warning: already initialized constant RAILS_ENV
** Rails loaded.
** Starting Workling::Remote::Invokers::ThreadedPoller...
** Use CTRL-C to stop.
** Exiting
=> Loading Rails...
[memcache-client] Could not load SystemTimer gem, falling back to Ruby's slower/unsafe timeout library: no such file to load -- system_timer
/Users/Oliver/Documents/rails_projects/iPortfolio/hosted/config/initializers/gateway.rb:1: warning: already initialized constant RAILS_ENV
** Rails loaded.
** Starting Workling::Remote::Invokers::ThreadedPoller...
** Use CTRL-C to stop.
** Exiting
=> Loading Rails...
[memcache-client] Could not load SystemTimer gem, falling back to Ruby's slower/unsafe timeout library: no such file to load -- system_timer
/Users/Oliver/Documents/rails_projects/iPortfolio/hosted/config/initializers/gateway.rb:1: warning: already initialized constant RAILS_ENV
** Rails loaded.
** Starting Workling::Remote::Invokers::ThreadedPoller...
** Use CTRL-C to stop.
** Exiting
=> Loading Rails...
[memcache-client] Could not load SystemTimer gem, falling back to Ruby's slower/unsafe timeout library: no such file to load -- system_timer
/Users/Oliver/Documents/rails_projects/iPortfolio/hosted/config/initializers/gateway.rb:1: warning: already initialized constant RAILS_ENV
** Rails loaded.
** Starting Workling::Remote::Invokers::ThreadedPoller...
** Use CTRL-C to stop.
** Exiting
=> Loading Rails...
[memcache-client] Could not load SystemTimer gem, falling back to Ruby's slower/unsafe timeout library: no such file to load -- system_timer
/Users/Oliver/Documents/rails_projects/iPortfolio/hosted/config/initializers/gateway.rb:1: warning: already initialized constant RAILS_ENV
** Rails loaded.
** Starting Workling::Remote::Invokers::ThreadedPoller...
** Use CTRL-C to stop.
/Library/Ruby/Gems/1.8/gems/memcache-client-1.7.2/lib/memcache.rb:229:in `load': undefined class/module ContactForm (ArgumentError)
	from /Library/Ruby/Gems/1.8/gems/memcache-client-1.7.2/lib/memcache.rb:229:in `get'
	from /Library/Ruby/Gems/1.8/gems/memcache-client-1.7.2/lib/memcache.rb:842:in `with_server'
	from /Library/Ruby/Gems/1.8/gems/memcache-client-1.7.2/lib/memcache.rb:225:in `get'
	from /Users/Oliver/Documents/rails_projects/iPortfolio/hosted/vendor/plugins/workling/lib/workling/clients/memcache_queue_client.rb:75:in `send'
	from /Users/Oliver/Documents/rails_projects/iPortfolio/hosted/vendor/plugins/workling/lib/workling/clients/memcache_queue_client.rb:75:in `method_missing'
	from /Users/Oliver/Documents/rails_projects/iPortfolio/hosted/vendor/plugins/workling/lib/workling/clients/memcache_queue_client.rb:55:in `retrieve'
	from /Users/Oliver/Documents/rails_projects/iPortfolio/hosted/vendor/plugins/workling/script/../lib/workling/remote/invokers/threaded_poller.rb:131:in `dispatch!'
	from /Users/Oliver/Documents/rails_projects/iPortfolio/hosted/vendor/plugins/workling/script/../lib/workling/remote/invokers/threaded_poller.rb:129:in `each'
	 ... 14 levels...
	from /System/Library/Frameworks/Ruby.framework/Versions/1.8/usr/lib/ruby/gems/1.8/gems/daemons-1.0.9/lib/daemons/cmdline.rb:105:in `call'
	from /System/Library/Frameworks/Ruby.framework/Versions/1.8/usr/lib/ruby/gems/1.8/gems/daemons-1.0.9/lib/daemons/cmdline.rb:105:in `catch_exceptions'
	from /System/Library/Frameworks/Ruby.framework/Versions/1.8/usr/lib/ruby/gems/1.8/gems/daemons-1.0.9/lib/daemons.rb:135:in `run'
	from script/workling_client:17
** Exiting
=> Loading Rails...
[memcache-client] Could not load SystemTimer gem, falling back to Ruby's slower/unsafe timeout library: no such file to load -- system_timer
/Users/Oliver/Documents/rails_projects/iPortfolio/hosted/config/initializers/gateway.rb:1: warning: already initialized constant RAILS_ENV
** Rails loaded.
** Starting Workling::Remote::Invokers::ThreadedPoller...
** Use CTRL-C to stop.
FFmpeg version UNKNOWN, Copyright (c) 2000-2008 Fabrice Bellard, et al.
  configuration: --prefix=/opt/local --disable-vhook --mandir=/opt/local/share/man --enable-shared --enable-pthreads --disable-mmx --cc=gcc-4.0 --enable-libmp3lame --enable-libvorbis --enable-libtheora --enable-gpl --enable-libfaac --enable-libfaad --enable-libxvid --enable-libx264 --enable-liba52
  libavutil version: 49.7.0
  libavcodec version: 51.60.0
  libavformat version: 52.18.0
  libavdevice version: 52.0.0
  built on Feb  9 2009 21:29:08, gcc: 4.0.1 (Apple Computer, Inc. build 5367)
Input #0, mov,mp4,m4a,3gp,3g2,mj2, from '/Users/Oliver/Documents/rails_projects/iPortfolio/hosted/public/system/sources/51/original/Superfly_II.m4v':
  Duration: 00:02:05.92, start: 0.000000, bitrate: 274 kb/s
    Stream #0.0(eng): Audio: libfaad, 44100 Hz, stereo
    Stream #0.1(eng): Video: h264, yuv420p, 320x211, 10.00 tb(r)
WARNING: The bitrate parameter is set too low. It takes bits/s as argument, not kbits/s
Output #0, flv, to '/Users/Oliver/Documents/rails_projects/iPortfolio/hosted/public/system/sources/51/original/51-video.flv':
    Stream #0.0(eng): Video: flv, yuv420p, 320x211, q=2-31, 200 kb/s, 25.00 tb(c)
    Stream #0.1(eng): Audio: libmp3lame, 22050 Hz, stereo, 0 kb/s
Stream mapping:
  Stream #0.1 -> #0.0
  Stream #0.0 -> #0.1
Press [q] to stop encoding
[h264 @ 0x1003600]brainfart cropping not supported, this could look slightly wrong ...
frame=   22 fps=  0 q=8.0 size=      46kB time=0.88 bitrate= 424.0kbits/s    frame=   77 fps= 76 q=8.0 size=     160kB time=3.08 bitrate= 424.5kbits/s    frame=  147 fps= 97 q=8.0 size=     311kB time=5.88 bitrate= 433.3kbits/s    frame=  202 fps=100 q=8.0 size=     437kB time=8.08 bitrate= 442.6kbits/s    frame=  260 fps=103 q=8.0 size=     562kB time=10.40 bitrate= 442.8kbits/s    frame=  322 fps=107 q=8.0 size=     696kB time=12.88 bitrate= 442.4kbits/s    frame=  382 fps=108 q=8.0 size=     830kB time=15.28 bitrate= 445.2kbits/s    frame=  442 fps=110 q=8.0 size=     959kB time=17.68 bitrate= 444.2kbits/s    frame=  510 fps=113 q=8.0 size=    1098kB time=20.40 bitrate= 440.9kbits/s    frame=  572 fps=114 q=8.0 size=    1209kB time=22.88 bitrate= 432.7kbits/s    frame=  645 fps=116 q=8.0 size=    1345kB time=25.80 bitrate= 426.9kbits/s    frame=  705 fps=117 q=8.0 size=    1465kB time=28.20 bitrate= 425.5kbits/s    frame=  767 fps=117 q=8.0 size=    1591kB time=30.68 bitrate= 424.7kbits/s    frame=  805 fps=114 q=8.0 size=    1661kB time=32.20 bitrate= 422.5kbits/s    frame=  872 fps=116 q=8.0 size=    1791kB time=34.88 bitrate= 420.7kbits/s    frame=  942 fps=117 q=8.0 size=    1944kB time=37.68 bitrate= 422.7kbits/s    frame=  997 fps=117 q=8.0 size=    2084kB time=39.88 bitrate= 428.0kbits/s    frame= 1067 fps=118 q=8.0 size=    2251kB time=42.68 bitrate= 432.0kbits/s    frame= 1135 fps=119 q=8.0 size=    2398kB time=45.40 bitrate= 432.7kbits/s    frame= 1205 fps=120 q=8.0 size=    2548kB time=48.20 bitrate= 433.0kbits/s    frame= 1272 fps=120 q=8.0 size=    2677kB time=50.88 bitrate= 431.1kbits/s    frame= 1340 fps=121 q=8.0 size=    2819kB time=53.60 bitrate= 430.8kbits/s    frame= 1410 fps=122 q=8.0 size=    2991kB time=56.40 bitrate= 434.4kbits/s    frame= 1472 fps=122 q=8.0 size=    3147kB time=58.88 bitrate= 437.9kbits/s    frame= 1542 fps=123 q=8.0 size=    3302kB time=61.68 bitrate= 438.6kbits/s    frame= 1622 fps=124 q=8.0 size=    3434kB time=64.88 bitrate= 433.6kbits/s    frame= 1697 fps=125 q=8.0 size=    3595kB time=67.88 bitrate= 433.9kbits/s    frame= 1775 fps=126 q=8.0 size=    3729kB time=71.00 bitrate= 430.3kbits/s    frame= 1847 fps=127 q=8.0 size=    3872kB time=73.88 bitrate= 429.3kbits/s    frame= 1920 fps=127 q=8.0 size=    3999kB time=76.80 bitrate= 426.6kbits/s    frame= 1995 fps=128 q=8.0 size=    4151kB time=79.80 bitrate= 426.1kbits/s    frame= 2072 fps=129 q=8.0 size=    4291kB time=82.88 bitrate= 424.1kbits/s    frame= 2150 fps=129 q=8.0 size=    4405kB time=86.00 bitrate= 419.6kbits/s    frame= 2235 fps=131 q=8.0 size=    4535kB time=89.39 bitrate= 415.6kbits/s    frame= 2310 fps=131 q=8.0 size=    4675kB time=92.40 bitrate= 414.4kbits/s    frame= 2385 fps=132 q=8.0 size=    4820kB time=95.40 bitrate= 413.9kbits/s    frame= 2450 fps=132 q=8.0 size=    4944kB time=98.00 bitrate= 413.3kbits/s    frame= 2522 fps=132 q=8.0 size=    5089kB time=100.88 bitrate= 413.3kbits/s    frame= 2590 fps=132 q=8.0 size=    5221kB time=103.60 bitrate= 412.8kbits/s    frame= 2672 fps=133 q=8.0 size=    5360kB time=106.88 bitrate= 410.8kbits/s    frame= 2740 fps=133 q=8.0 size=    5494kB time=109.60 bitrate= 410.6kbits/s    frame= 2822 fps=134 q=8.0 size=    5669kB time=112.88 bitrate= 411.4kbits/s    frame= 2875 fps=133 q=8.0 size=    5805kB time=115.00 bitrate= 413.5kbits/s    frame= 2955 fps=133 q=8.0 size=    5932kB time=118.20 bitrate= 411.1kbits/s    frame= 3047 fps=135 q=8.0 size=    6088kB time=121.88 bitrate= 409.2kbits/s    frame= 3145 fps=137 q=8.0 Lsize=    6155kB time=125.80 bitrate= 400.8kbits/s    
video:5046kB audio:984kB global headers:0kB muxing overhead 2.068774%
FFmpeg version UNKNOWN, Copyright (c) 2000-2008 Fabrice Bellard, et al.
  configuration: --prefix=/opt/local --disable-vhook --mandir=/opt/local/share/man --enable-shared --enable-pthreads --disable-mmx --cc=gcc-4.0 --enable-libmp3lame --enable-libvorbis --enable-libtheora --enable-gpl --enable-libfaac --enable-libfaad --enable-libxvid --enable-libx264 --enable-liba52
  libavutil version: 49.7.0
  libavcodec version: 51.60.0
  libavformat version: 52.18.0
  libavdevice version: 52.0.0
  built on Feb  9 2009 21:29:08, gcc: 4.0.1 (Apple Computer, Inc. build 5367)
Input #0, mov,mp4,m4a,3gp,3g2,mj2, from '/Users/Oliver/Documents/rails_projects/iPortfolio/hosted/public/system/sources/51/original/Superfly_II.m4v':
  Duration: 00:02:05.92, start: 0.000000, bitrate: 274 kb/s
    Stream #0.0(eng): Audio: libfaad, 44100 Hz, stereo
    Stream #0.1(eng): Video: h264, yuv420p, 320x211, 10.00 tb(r)
Output #0, mjpeg, to '/Users/Oliver/Documents/rails_projects/iPortfolio/hosted/public/system/sources/51/original/51-still.jpg':
    Stream #0.0(eng): Video: mjpeg, yuvj420p, 320x211, q=2-31, 200 kb/s,  1.00 tb(c)
Stream mapping:
  Stream #0.1 -> #0.0
Press [q] to stop encoding
[h264 @ 0x1003600]brainfart cropping not supported, this could look slightly wrong ...
frame=    1 fps=  0 q=3.6 Lsize=      10kB time=1.00 bitrate=  78.6kbits/s    
video:10kB audio:0kB global headers:0kB muxing overhead 0.000000%
** Exiting
=> Loading Rails...
[memcache-client] Could not load SystemTimer gem, falling back to Ruby's slower/unsafe timeout library: no such file to load -- system_timer
/Users/Oliver/Documents/rails_projects/iPortfolio/hosted/config/initializers/gateway.rb:1: warning: already initialized constant RAILS_ENV
** Rails loaded.
** Starting Workling::Remote::Invokers::ThreadedPoller...
** Use CTRL-C to stop.
FFmpeg version UNKNOWN, Copyright (c) 2000-2008 Fabrice Bellard, et al.
  configuration: --prefix=/opt/local --disable-vhook --mandir=/opt/local/share/man --enable-shared --enable-pthreads --disable-mmx --cc=gcc-4.0 --enable-libmp3lame --enable-libvorbis --enable-libtheora --enable-gpl --enable-libfaac --enable-libfaad --enable-libxvid --enable-libx264 --enable-liba52
  libavutil version: 49.7.0
  libavcodec version: 51.60.0
  libavformat version: 52.18.0
  libavdevice version: 52.0.0
  built on Feb  9 2009 21:29:08, gcc: 4.0.1 (Apple Computer, Inc. build 5367)
Input #0, mov,mp4,m4a,3gp,3g2,mj2, from '/Users/Oliver/Documents/rails_projects/iPortfolio/hosted/public/system/sources/52/original/Superfly_II.m4v':
  Duration: 00:02:05.92, start: 0.000000, bitrate: 274 kb/s
    Stream #0.0(eng): Audio: libfaad, 44100 Hz, stereo
    Stream #0.1(eng): Video: h264, yuv420p, 320x211, 10.00 tb(r)
WARNING: The bitrate parameter is set too low. It takes bits/s as argument, not kbits/s
Output #0, flv, to '/Users/Oliver/Documents/rails_projects/iPortfolio/hosted/public/system/sources/52/original/52-video.flv':
    Stream #0.0(eng): Video: flv, yuv420p, 320x211, q=2-31, 200 kb/s, 25.00 tb(c)
    Stream #0.1(eng): Audio: libmp3lame, 22050 Hz, stereo, 0 kb/s
Stream mapping:
  Stream #0.1 -> #0.0
  Stream #0.0 -> #0.1
Press [q] to stop encoding
[h264 @ 0x1003600]brainfart cropping not supported, this could look slightly wrong ...
frame=   17 fps=  0 q=8.0 size=      36kB time=0.68 bitrate= 438.8kbits/s    frame=   72 fps= 71 q=8.0 size=     140kB time=2.88 bitrate= 397.6kbits/s    frame=  130 fps= 86 q=8.0 size=     267kB time=5.20 bitrate= 421.2kbits/s    frame=  192 fps= 95 q=8.0 size=     412kB time=7.68 bitrate= 439.8kbits/s    frame=  247 fps= 98 q=8.0 size=     536kB time=9.88 bitrate= 444.6kbits/s    frame=  305 fps=100 q=8.0 size=     660kB time=12.20 bitrate= 443.3kbits/s    frame=  360 fps=102 q=8.0 size=     779kB time=14.40 bitrate= 443.1kbits/s    frame=  422 fps=104 q=8.0 size=     911kB time=16.88 bitrate= 442.0kbits/s    frame=  485 fps=107 q=8.0 size=    1051kB time=19.40 bitrate= 443.9kbits/s    frame=  547 fps=108 q=8.0 size=    1163kB time=21.88 bitrate= 435.5kbits/s    frame=  610 fps=110 q=8.0 size=    1275kB time=24.40 bitrate= 428.1kbits/s    frame=  680 fps=112 q=8.0 size=    1411kB time=27.20 bitrate= 425.1kbits/s    frame=  745 fps=114 q=8.0 size=    1547kB time=29.80 bitrate= 425.4kbits/s    frame=  810 fps=115 q=8.0 size=    1677kB time=32.40 bitrate= 424.1kbits/s    frame=  872 fps=115 q=8.0 size=    1791kB time=34.88 bitrate= 420.7kbits/s    frame=  935 fps=116 q=8.0 size=    1915kB time=37.40 bitrate= 419.4kbits/s    frame=  995 fps=116 q=8.0 size=    2077kB time=39.80 bitrate= 427.6kbits/s    frame= 1060 fps=117 q=8.0 size=    2231kB time=42.40 bitrate= 431.1kbits/s    frame= 1122 fps=117 q=8.0 size=    2373kB time=44.88 bitrate= 433.2kbits/s    frame= 1140 fps=113 q=8.0 size=    2403kB time=45.60 bitrate= 431.7kbits/s    frame= 1210 fps=114 q=8.0 size=    2558kB time=48.40 bitrate= 433.0kbits/s    frame= 1272 fps=115 q=8.0 size=    2677kB time=50.88 bitrate= 431.1kbits/s    frame= 1332 fps=115 q=8.0 size=    2799kB time=53.28 bitrate= 430.4kbits/s    frame= 1385 fps=114 q=8.0 size=    2926kB time=55.40 bitrate= 432.7kbits/s    frame= 1447 fps=115 q=8.0 size=    3083kB time=57.88 bitrate= 436.3kbits/s    frame= 1507 fps=115 q=8.0 size=    3240kB time=60.28 bitrate= 440.3kbits/s    frame= 1577 fps=116 q=8.0 size=    3364kB time=63.08 bitrate= 436.9kbits/s    frame= 1647 fps=117 q=8.0 size=    3486kB time=65.88 bitrate= 433.5kbits/s    frame= 1720 fps=118 q=8.0 size=    3626kB time=68.80 bitrate= 431.8kbits/s    frame= 1787 fps=118 q=8.0 size=    3751kB time=71.48 bitrate= 429.8kbits/s    frame= 1852 fps=118 q=8.0 size=    3876kB time=74.08 bitrate= 428.6kbits/s    frame= 1917 fps=119 q=8.0 size=    3997kB time=76.68 bitrate= 427.0kbits/s    frame= 1985 fps=119 q=8.0 size=    4141kB time=79.40 bitrate= 427.3kbits/s    frame= 2060 fps=120 q=8.0 size=    4271kB time=82.40 bitrate= 424.7kbits/s    frame= 2130 fps=121 q=8.0 size=    4380kB time=85.20 bitrate= 421.2kbits/s    frame= 2197 fps=121 q=8.0 size=    4477kB time=87.88 bitrate= 417.4kbits/s    frame= 2272 fps=122 q=8.0 size=    4605kB time=90.88 bitrate= 415.1kbits/s    frame= 2337 fps=122 q=8.0 size=    4716kB time=93.48 bitrate= 413.3kbits/s    frame= 2397 fps=122 q=8.0 size=    4843kB time=95.88 bitrate= 413.8kbits/s    frame= 2460 fps=122 q=8.0 size=    4964kB time=98.40 bitrate= 413.2kbits/s    frame= 2522 fps=122 q=8.0 size=    5089kB time=100.88 bitrate= 413.3kbits/s    frame= 2585 fps=122 q=8.0 size=    5209kB time=103.40 bitrate= 412.7kbits/s    frame= 2647 fps=122 q=8.0 size=    5317kB time=105.88 bitrate= 411.4kbits/s    frame= 2717 fps=122 q=8.0 size=    5443kB time=108.68 bitrate= 410.3kbits/s    frame= 2785 fps=123 q=8.0 size=    5592kB time=111.39 bitrate= 411.3kbits/s    frame= 2860 fps=123 q=8.0 size=    5755kB time=114.40 bitrate= 412.1kbits/s    frame= 2922 fps=123 q=8.0 size=    5885kB time=116.88 bitrate= 412.4kbits/s    frame= 3000 fps=124 q=8.0 size=    6009kB time=120.00 bitrate= 410.2kbits/s    frame= 3105 fps=126 q=8.0 size=    6125kB time=124.20 bitrate= 404.0kbits/s    frame= 3145 fps=126 q=8.0 Lsize=    6155kB time=125.80 bitrate= 400.8kbits/s    
video:5046kB audio:984kB global headers:0kB muxing overhead 2.068774%
FFmpeg version UNKNOWN, Copyright (c) 2000-2008 Fabrice Bellard, et al.
  configuration: --prefix=/opt/local --disable-vhook --mandir=/opt/local/share/man --enable-shared --enable-pthreads --disable-mmx --cc=gcc-4.0 --enable-libmp3lame --enable-libvorbis --enable-libtheora --enable-gpl --enable-libfaac --enable-libfaad --enable-libxvid --enable-libx264 --enable-liba52
  libavutil version: 49.7.0
  libavcodec version: 51.60.0
  libavformat version: 52.18.0
  libavdevice version: 52.0.0
  built on Feb  9 2009 21:29:08, gcc: 4.0.1 (Apple Computer, Inc. build 5367)
Input #0, mov,mp4,m4a,3gp,3g2,mj2, from '/Users/Oliver/Documents/rails_projects/iPortfolio/hosted/public/system/sources/52/original/Superfly_II.m4v':
  Duration: 00:02:05.92, start: 0.000000, bitrate: 274 kb/s
    Stream #0.0(eng): Audio: libfaad, 44100 Hz, stereo
    Stream #0.1(eng): Video: h264, yuv420p, 320x211, 10.00 tb(r)
Output #0, mjpeg, to '/Users/Oliver/Documents/rails_projects/iPortfolio/hosted/public/system/sources/52/original/52-still.jpg':
    Stream #0.0(eng): Video: mjpeg, yuvj420p, 320x211, q=2-31, 200 kb/s,  1.00 tb(c)
Stream mapping:
  Stream #0.1 -> #0.0
Press [q] to stop encoding
[h264 @ 0x1003600]brainfart cropping not supported, this could look slightly wrong ...
frame=    1 fps=  0 q=3.6 Lsize=      10kB time=1.00 bitrate=  78.6kbits/s    
video:10kB audio:0kB global headers:0kB muxing overhead 0.000000%
FFmpeg version UNKNOWN, Copyright (c) 2000-2008 Fabrice Bellard, et al.
  configuration: --prefix=/opt/local --disable-vhook --mandir=/opt/local/share/man --enable-shared --enable-pthreads --disable-mmx --cc=gcc-4.0 --enable-libmp3lame --enable-libvorbis --enable-libtheora --enable-gpl --enable-libfaac --enable-libfaad --enable-libxvid --enable-libx264 --enable-liba52
  libavutil version: 49.7.0
  libavcodec version: 51.60.0
  libavformat version: 52.18.0
  libavdevice version: 52.0.0
  built on Feb  9 2009 21:29:08, gcc: 4.0.1 (Apple Computer, Inc. build 5367)
Input #0, mov,mp4,m4a,3gp,3g2,mj2, from '/Users/Oliver/Documents/rails_projects/iPortfolio/hosted/public/system/sources/53/original/Superfly_II.m4v':
  Duration: 00:02:05.92, start: 0.000000, bitrate: 274 kb/s
    Stream #0.0(eng): Audio: libfaad, 44100 Hz, stereo
    Stream #0.1(eng): Video: h264, yuv420p, 320x211, 10.00 tb(r)
WARNING: The bitrate parameter is set too low. It takes bits/s as argument, not kbits/s
Output #0, flv, to '/Users/Oliver/Documents/rails_projects/iPortfolio/hosted/public/system/sources/53/original/53-video.flv':
    Stream #0.0(eng): Video: flv, yuv420p, 320x211, q=2-31, 200 kb/s, 25.00 tb(c)
    Stream #0.1(eng): Audio: libmp3lame, 22050 Hz, stereo, 0 kb/s
Stream mapping:
  Stream #0.1 -> #0.0
  Stream #0.0 -> #0.1
Press [q] to stop encoding
[h264 @ 0x1003600]brainfart cropping not supported, this could look slightly wrong ...
frame=   22 fps=  0 q=8.0 size=      46kB time=0.88 bitrate= 424.0kbits/s    frame=   77 fps= 76 q=8.0 size=     160kB time=3.08 bitrate= 424.5kbits/s    frame=  145 fps= 96 q=8.0 size=     309kB time=5.80 bitrate= 437.1kbits/s    frame=  202 fps=100 q=8.0 size=     437kB time=8.08 bitrate= 442.6kbits/s    frame=  262 fps=104 q=8.0 size=     564kB time=10.48 bitrate= 440.6kbits/s    frame=  322 fps=106 q=8.0 size=     696kB time=12.88 bitrate= 442.4kbits/s    frame=  385 fps=109 q=8.0 size=     833kB time=15.40 bitrate= 443.0kbits/s    frame=  460 fps=114 q=8.0 size=     987kB time=18.39 bitrate= 439.6kbits/s    frame=  532 fps=117 q=8.0 size=    1129kB time=21.28 bitrate= 434.5kbits/s    frame=  607 fps=120 q=8.0 size=    1271kB time=24.28 bitrate= 428.9kbits/s    frame=  677 fps=122 q=8.0 size=    1409kB time=27.08 bitrate= 426.3kbits/s    frame=  745 fps=123 q=8.0 size=    1547kB time=29.80 bitrate= 425.4kbits/s    frame=  810 fps=123 q=8.0 size=    1677kB time=32.40 bitrate= 424.1kbits/s    frame=  885 fps=125 q=8.0 size=    1814kB time=35.40 bitrate= 419.9kbits/s    frame=  952 fps=126 q=8.0 size=    1963kB time=38.08 bitrate= 422.3kbits/s    frame= 1017 fps=126 q=8.0 size=    2130kB time=40.68 bitrate= 429.0kbits/s    frame= 1085 fps=127 q=8.0 size=    2296kB time=43.40 bitrate= 433.4kbits/s    frame= 1150 fps=127 q=8.0 size=    2424kB time=46.00 bitrate= 431.6kbits/s    frame= 1222 fps=128 q=8.0 size=    2588kB time=48.88 bitrate= 433.7kbits/s    frame= 1285 fps=128 q=8.0 size=    2702kB time=51.40 bitrate= 430.7kbits/s    frame= 1337 fps=123 q=8.0 size=    2816kB time=53.48 bitrate= 431.4kbits/s    frame= 1410 fps=124 q=8.0 size=    2991kB time=56.40 bitrate= 434.4kbits/s    frame= 1477 fps=125 q=8.0 size=    3161kB time=59.08 bitrate= 438.3kbits/s    frame= 1542 fps=125 q=8.0 size=    3302kB time=61.68 bitrate= 438.6kbits/s    frame= 1610 fps=125 q=8.0 size=    3413kB time=64.40 bitrate= 434.2kbits/s    frame= 1655 fps=124 q=8.0 size=    3514kB time=66.20 bitrate= 434.9kbits/s    frame= 1722 fps=124 q=8.0 size=    3639kB time=68.88 bitrate= 432.8kbits/s    frame= 1797 fps=125 q=8.0 size=    3771kB time=71.88 bitrate= 429.7kbits/s    frame= 1860 fps=125 q=8.0 size=    3894kB time=74.40 bitrate= 428.7kbits/s    frame= 1922 fps=125 q=8.0 size=    4001kB time=76.88 bitrate= 426.4kbits/s    frame= 1987 fps=125 q=8.0 size=    4144kB time=79.48 bitrate= 427.1kbits/s    frame= 2060 fps=126 q=8.0 size=    4271kB time=82.40 bitrate= 424.7kbits/s    frame= 2132 fps=126 q=8.0 size=    4382kB time=85.28 bitrate= 420.9kbits/s    frame= 2200 fps=127 q=8.0 size=    4480kB time=88.00 bitrate= 417.0kbits/s    frame= 2265 fps=127 q=8.0 size=    4598kB time=90.60 bitrate= 415.8kbits/s    frame= 2342 fps=127 q=8.0 size=    4720kB time=93.68 bitrate= 412.8kbits/s    frame= 2397 fps=127 q=8.0 size=    4843kB time=95.88 bitrate= 413.8kbits/s    frame= 2467 fps=127 q=8.0 size=    4982kB time=98.68 bitrate= 413.6kbits/s    frame= 2535 fps=127 q=8.0 size=    5113kB time=101.40 bitrate= 413.1kbits/s    frame= 2585 fps=127 q=8.0 size=    5209kB time=103.40 bitrate= 412.7kbits/s    frame= 2660 fps=127 q=8.0 size=    5339kB time=106.40 bitrate= 411.0kbits/s    frame= 2725 fps=127 q=8.0 size=    5466kB time=109.00 bitrate= 410.8kbits/s    frame= 2805 fps=128 q=8.0 size=    5640kB time=112.20 bitrate= 411.8kbits/s    frame= 2872 fps=128 q=8.0 size=    5793kB time=114.88 bitrate= 413.1kbits/s    frame= 2947 fps=128 q=8.0 size=    5926kB time=117.88 bitrate= 411.8kbits/s    frame= 3022 fps=129 q=8.0 size=    6046kB time=120.88 bitrate= 409.8kbits/s    frame= 3127 fps=131 q=8.0 size=    6140kB time=125.08 bitrate= 402.2kbits/s    frame= 3145 fps=131 q=8.0 Lsize=    6155kB time=125.80 bitrate= 400.8kbits/s    
video:5046kB audio:984kB global headers:0kB muxing overhead 2.068774%
FFmpeg version UNKNOWN, Copyright (c) 2000-2008 Fabrice Bellard, et al.
  configuration: --prefix=/opt/local --disable-vhook --mandir=/opt/local/share/man --enable-shared --enable-pthreads --disable-mmx --cc=gcc-4.0 --enable-libmp3lame --enable-libvorbis --enable-libtheora --enable-gpl --enable-libfaac --enable-libfaad --enable-libxvid --enable-libx264 --enable-liba52
  libavutil version: 49.7.0
  libavcodec version: 51.60.0
  libavformat version: 52.18.0
  libavdevice version: 52.0.0
  built on Feb  9 2009 21:29:08, gcc: 4.0.1 (Apple Computer, Inc. build 5367)
Input #0, mov,mp4,m4a,3gp,3g2,mj2, from '/Users/Oliver/Documents/rails_projects/iPortfolio/hosted/public/system/sources/53/original/Superfly_II.m4v':
  Duration: 00:02:05.92, start: 0.000000, bitrate: 274 kb/s
    Stream #0.0(eng): Audio: libfaad, 44100 Hz, stereo
    Stream #0.1(eng): Video: h264, yuv420p, 320x211, 10.00 tb(r)
Output #0, mjpeg, to '/Users/Oliver/Documents/rails_projects/iPortfolio/hosted/public/system/sources/53/original/53-still.jpg':
    Stream #0.0(eng): Video: mjpeg, yuvj420p, 320x211, q=2-31, 200 kb/s,  1.00 tb(c)
Stream mapping:
  Stream #0.1 -> #0.0
Press [q] to stop encoding
[h264 @ 0x1003600]brainfart cropping not supported, this could look slightly wrong ...
frame=    1 fps=  0 q=3.6 Lsize=      10kB time=1.00 bitrate=  78.6kbits/s    
video:10kB audio:0kB global headers:0kB muxing overhead 0.000000%
FFmpeg version UNKNOWN, Copyright (c) 2000-2008 Fabrice Bellard, et al.
  configuration: --prefix=/opt/local --disable-vhook --mandir=/opt/local/share/man --enable-shared --enable-pthreads --disable-mmx --cc=gcc-4.0 --enable-libmp3lame --enable-libvorbis --enable-libtheora --enable-gpl --enable-libfaac --enable-libfaad --enable-libxvid --enable-libx264 --enable-liba52
  libavutil version: 49.7.0
  libavcodec version: 51.60.0
  libavformat version: 52.18.0
  libavdevice version: 52.0.0
  built on Feb  9 2009 21:29:08, gcc: 4.0.1 (Apple Computer, Inc. build 5367)
Input #0, mov,mp4,m4a,3gp,3g2,mj2, from '/Users/Oliver/Documents/rails_projects/iPortfolio/hosted/public/system/sources/54/original/Superfly_II.m4v':
  Duration: 00:02:05.92, start: 0.000000, bitrate: 274 kb/s
    Stream #0.0(eng): Audio: libfaad, 44100 Hz, stereo
    Stream #0.1(eng): Video: h264, yuv420p, 320x211, 10.00 tb(r)
WARNING: The bitrate parameter is set too low. It takes bits/s as argument, not kbits/s
Output #0, flv, to '/Users/Oliver/Documents/rails_projects/iPortfolio/hosted/public/system/sources/54/original/54-video.flv':
    Stream #0.0(eng): Video: flv, yuv420p, 320x211, q=2-31, 200 kb/s, 25.00 tb(c)
    Stream #0.1(eng): Audio: libmp3lame, 22050 Hz, stereo, 0 kb/s
Stream mapping:
  Stream #0.1 -> #0.0
  Stream #0.0 -> #0.1
Press [q] to stop encoding
[h264 @ 0x1003600]brainfart cropping not supported, this could look slightly wrong ...
frame=   22 fps=  0 q=8.0 size=      46kB time=0.88 bitrate= 424.0kbits/s    frame=   75 fps= 74 q=8.0 size=     157kB time=3.00 bitrate= 427.5kbits/s    frame=  145 fps= 95 q=8.0 size=     309kB time=5.80 bitrate= 437.1kbits/s    frame=  200 fps= 99 q=8.0 size=     434kB time=8.00 bitrate= 444.5kbits/s    frame=  260 fps=103 q=8.0 size=     562kB time=10.40 bitrate= 442.8kbits/s    frame=  322 fps=106 q=8.0 size=     696kB time=12.88 bitrate= 442.4kbits/s    frame=  382 fps=108 q=8.0 size=     830kB time=15.28 bitrate= 445.2kbits/s    frame=  442 fps=110 q=8.0 size=     959kB time=17.68 bitrate= 444.2kbits/s    frame=  510 fps=112 q=8.0 size=    1098kB time=20.40 bitrate= 440.9kbits/s    frame=  572 fps=114 q=8.0 size=    1209kB time=22.88 bitrate= 432.7kbits/s    frame=  642 fps=116 q=8.0 size=    1342kB time=25.68 bitrate= 428.1kbits/s    frame=  702 fps=116 q=8.0 size=    1461kB time=28.08 bitrate= 426.2kbits/s    frame=  760 fps=116 q=8.0 size=    1573kB time=30.40 bitrate= 423.8kbits/s    frame=  830 fps=118 q=8.0 size=    1706kB time=33.20 bitrate= 421.0kbits/s    frame=  895 fps=119 q=8.0 size=    1835kB time=35.80 bitrate= 420.0kbits/s    frame=  960 fps=119 q=8.0 size=    1983kB time=38.40 bitrate= 423.0kbits/s    frame= 1022 fps=120 q=8.0 size=    2137kB time=40.88 bitrate= 428.3kbits/s    frame= 1085 fps=120 q=8.0 size=    2296kB time=43.40 bitrate= 433.4kbits/s    frame= 1155 fps=121 q=8.0 size=    2428kB time=46.20 bitrate= 430.6kbits/s    frame= 1222 fps=121 q=8.0 size=    2588kB time=48.88 bitrate= 433.7kbits/s    frame= 1287 fps=122 q=8.0 size=    2707kB time=51.48 bitrate= 430.7kbits/s    frame= 1357 fps=123 q=8.0 size=    2854kB time=54.28 bitrate= 430.7kbits/s    frame= 1412 fps=121 q=8.0 size=    2995kB time=56.48 bitrate= 434.4kbits/s    frame= 1447 fps=119 q=8.0 size=    3083kB time=57.88 bitrate= 436.3kbits/s    frame= 1510 fps=119 q=8.0 size=    3242kB time=60.40 bitrate= 439.8kbits/s    frame= 1582 fps=120 q=8.0 size=    3368kB time=63.28 bitrate= 436.0kbits/s    frame= 1647 fps=121 q=8.0 size=    3486kB time=65.88 bitrate= 433.5kbits/s    frame= 1722 fps=122 q=8.0 size=    3639kB time=68.88 bitrate= 432.8kbits/s    frame= 1790 fps=122 q=8.0 size=    3753kB time=71.60 bitrate= 429.4kbits/s    frame= 1855 fps=122 q=8.0 size=    3889kB time=74.20 bitrate= 429.4kbits/s    frame= 1917 fps=122 q=8.0 size=    3997kB time=76.68 bitrate= 427.0kbits/s    frame= 1970 fps=122 q=8.0 size=    4102kB time=78.80 bitrate= 426.4kbits/s    frame= 2040 fps=122 q=8.0 size=    4236kB time=81.60 bitrate= 425.2kbits/s    frame= 2110 fps=123 q=8.0 size=    4348kB time=84.40 bitrate= 422.0kbits/s    frame= 2185 fps=123 q=8.0 size=    4458kB time=87.40 bitrate= 417.8kbits/s    frame= 2252 fps=124 q=8.0 size=    4578kB time=90.08 bitrate= 416.4kbits/s    frame= 2322 fps=124 q=8.0 size=    4694kB time=92.88 bitrate= 414.0kbits/s    frame= 2385 fps=124 q=8.0 size=    4820kB time=95.40 bitrate= 413.9kbits/s    frame= 2447 fps=124 q=8.0 size=    4942kB time=97.88 bitrate= 413.6kbits/s    frame= 2510 fps=124 q=8.0 size=    5066kB time=100.40 bitrate= 413.4kbits/s    frame= 2572 fps=124 q=8.0 size=    5179kB time=102.88 bitrate= 412.4kbits/s    frame= 2622 fps=124 q=8.0 size=    5271kB time=104.88 bitrate= 411.7kbits/s    frame= 2685 fps=124 q=8.0 size=    5382kB time=107.40 bitrate= 410.6kbits/s    frame= 2747 fps=124 q=8.0 size=    5515kB time=109.88 bitrate= 411.2kbits/s    frame= 2820 fps=124 q=8.0 size=    5668kB time=112.80 bitrate= 411.6kbits/s    frame= 2885 fps=124 q=8.0 size=    5813kB time=115.40 bitrate= 412.7kbits/s    frame= 2957 fps=125 q=8.0 size=    5934kB time=118.28 bitrate= 411.0kbits/s    frame= 3035 fps=125 q=8.0 size=    6067kB time=121.40 bitrate= 409.4kbits/s    frame= 3145 fps=127 q=8.0 Lsize=    6155kB time=125.80 bitrate= 400.8kbits/s    
video:5046kB audio:984kB global headers:0kB muxing overhead 2.068774%
FFmpeg version UNKNOWN, Copyright (c) 2000-2008 Fabrice Bellard, et al.
  configuration: --prefix=/opt/local --disable-vhook --mandir=/opt/local/share/man --enable-shared --enable-pthreads --disable-mmx --cc=gcc-4.0 --enable-libmp3lame --enable-libvorbis --enable-libtheora --enable-gpl --enable-libfaac --enable-libfaad --enable-libxvid --enable-libx264 --enable-liba52
  libavutil version: 49.7.0
  libavcodec version: 51.60.0
  libavformat version: 52.18.0
  libavdevice version: 52.0.0
  built on Feb  9 2009 21:29:08, gcc: 4.0.1 (Apple Computer, Inc. build 5367)
Input #0, mov,mp4,m4a,3gp,3g2,mj2, from '/Users/Oliver/Documents/rails_projects/iPortfolio/hosted/public/system/sources/54/original/Superfly_II.m4v':
  Duration: 00:02:05.92, start: 0.000000, bitrate: 274 kb/s
    Stream #0.0(eng): Audio: libfaad, 44100 Hz, stereo
    Stream #0.1(eng): Video: h264, yuv420p, 320x211, 10.00 tb(r)
Output #0, mjpeg, to '/Users/Oliver/Documents/rails_projects/iPortfolio/hosted/public/system/sources/54/original/54-still.jpg':
    Stream #0.0(eng): Video: mjpeg, yuvj420p, 320x211, q=2-31, 200 kb/s,  1.00 tb(c)
Stream mapping:
  Stream #0.1 -> #0.0
Press [q] to stop encoding
[h264 @ 0x1003600]brainfart cropping not supported, this could look slightly wrong ...
frame=    1 fps=  0 q=3.6 Lsize=      10kB time=1.00 bitrate=  78.6kbits/s    
video:10kB audio:0kB global headers:0kB muxing overhead 0.000000%
FFmpeg version UNKNOWN, Copyright (c) 2000-2008 Fabrice Bellard, et al.
  configuration: --prefix=/opt/local --disable-vhook --mandir=/opt/local/share/man --enable-shared --enable-pthreads --disable-mmx --cc=gcc-4.0 --enable-libmp3lame --enable-libvorbis --enable-libtheora --enable-gpl --enable-libfaac --enable-libfaad --enable-libxvid --enable-libx264 --enable-liba52
  libavutil version: 49.7.0
  libavcodec version: 51.60.0
  libavformat version: 52.18.0
  libavdevice version: 52.0.0
  built on Feb  9 2009 21:29:08, gcc: 4.0.1 (Apple Computer, Inc. build 5367)
Input #0, mov,mp4,m4a,3gp,3g2,mj2, from '/Users/Oliver/Documents/rails_projects/iPortfolio/hosted/public/system/sources/55/original/Superfly_II.m4v':
  Duration: 00:02:05.92, start: 0.000000, bitrate: 274 kb/s
    Stream #0.0(eng): Audio: libfaad, 44100 Hz, stereo
    Stream #0.1(eng): Video: h264, yuv420p, 320x211, 10.00 tb(r)
WARNING: The bitrate parameter is set too low. It takes bits/s as argument, not kbits/s
Output #0, flv, to '/Users/Oliver/Documents/rails_projects/iPortfolio/hosted/public/system/sources/55/original/55-video.flv':
    Stream #0.0(eng): Video: flv, yuv420p, 320x211, q=2-31, 200 kb/s, 25.00 tb(c)
    Stream #0.1(eng): Audio: libmp3lame, 22050 Hz, stereo, 0 kb/s
Stream mapping:
  Stream #0.1 -> #0.0
  Stream #0.0 -> #0.1
Press [q] to stop encoding
[h264 @ 0x1003600]brainfart cropping not supported, this could look slightly wrong ...
frame=   22 fps=  0 q=8.0 size=      46kB time=0.88 bitrate= 424.0kbits/s    frame=   72 fps= 72 q=8.0 size=     140kB time=2.88 bitrate= 397.6kbits/s    frame=  140 fps= 92 q=8.0 size=     290kB time=5.60 bitrate= 424.7kbits/s    frame=  197 fps= 98 q=8.0 size=     430kB time=7.88 bitrate= 447.5kbits/s    frame=  260 fps=103 q=8.0 size=     562kB time=10.40 bitrate= 442.9kbits/s    frame=  315 fps=104 q=8.0 size=     672kB time=12.60 bitrate= 437.2kbits/s    frame=  372 fps=105 q=8.0 size=     808kB time=14.88 bitrate= 445.0kbits/s    frame=  435 fps=108 q=8.0 size=     938kB time=17.40 bitrate= 441.8kbits/s    frame=  495 fps=109 q=8.0 size=    1059kB time=19.80 bitrate= 438.2kbits/s    frame=  560 fps=111 q=8.0 size=    1185kB time=22.39 bitrate= 433.5kbits/s    frame=  622 fps=112 q=8.0 size=    1299kB time=24.88 bitrate= 427.7kbits/s    frame=  685 fps=113 q=8.0 size=    1417kB time=27.40 bitrate= 423.6kbits/s    frame=  735 fps=112 q=8.0 size=    1526kB time=29.40 bitrate= 425.3kbits/s    frame=  797 fps=113 q=8.0 size=    1654kB time=31.88 bitrate= 425.1kbits/s    frame=  860 fps=114 q=8.0 size=    1769kB time=34.40 bitrate= 421.2kbits/s    frame=  922 fps=114 q=8.0 size=    1883kB time=36.88 bitrate= 418.2kbits/s    frame=  985 fps=115 q=8.0 size=    2043kB time=39.40 bitrate= 424.9kbits/s    frame= 1047 fps=116 q=8.0 size=    2204kB time=41.88 bitrate= 431.1kbits/s    frame= 1110 fps=116 q=8.0 size=    2350kB time=44.40 bitrate= 433.6kbits/s    frame= 1172 fps=116 q=8.0 size=    2470kB time=46.88 bitrate= 431.6kbits/s    frame= 1240 fps=117 q=8.0 size=    2613kB time=49.60 bitrate= 431.6kbits/s    frame= 1275 fps=115 q=8.0 size=    2680kB time=51.00 bitrate= 430.4kbits/s    frame= 1345 fps=116 q=8.0 size=    2827kB time=53.80 bitrate= 430.5kbits/s    frame= 1410 fps=116 q=8.0 size=    2991kB time=56.40 bitrate= 434.4kbits/s    frame= 1472 fps=117 q=8.0 size=    3147kB time=58.88 bitrate= 437.9kbits/s    frame= 1532 fps=117 q=8.0 size=    3283kB time=61.28 bitrate= 438.8kbits/s    frame= 1597 fps=117 q=8.0 size=    3391kB time=63.88 bitrate= 434.9kbits/s    frame= 1672 fps=118 q=8.0 size=    3540kB time=66.88 bitrate= 433.6kbits/s    frame= 1747 fps=119 q=8.0 size=    3683kB time=69.88 bitrate= 431.7kbits/s    frame= 1822 fps=120 q=8.0 size=    3816kB time=72.88 bitrate= 428.9kbits/s    frame= 1882 fps=120 q=8.0 size=    3935kB time=75.28 bitrate= 428.2kbits/s    frame= 1947 fps=121 q=8.0 size=    4056kB time=77.88 bitrate= 426.7kbits/s    frame= 2002 fps=120 q=8.0 size=    4176kB time=80.08 bitrate= 427.2kbits/s    frame= 2072 fps=121 q=8.0 size=    4291kB time=82.88 bitrate= 424.1kbits/s    frame= 2147 fps=122 q=8.0 size=    4403kB time=85.88 bitrate= 420.0kbits/s    frame= 2220 fps=122 q=8.0 size=    4514kB time=88.80 bitrate= 416.4kbits/s    frame= 2297 fps=123 q=8.0 size=    4655kB time=91.88 bitrate= 415.0kbits/s    frame= 2360 fps=123 q=8.0 size=    4776kB time=94.40 bitrate= 414.5kbits/s    frame= 2415 fps=123 q=8.0 size=    4869kB time=96.60 bitrate= 412.9kbits/s    frame= 2477 fps=123 q=8.0 size=    5002kB time=99.08 bitrate= 413.6kbits/s    frame= 2535 fps=123 q=8.0 size=    5113kB time=101.40 bitrate= 413.1kbits/s    frame= 2610 fps=123 q=8.0 size=    5244kB time=104.39 bitrate= 411.6kbits/s    frame= 2672 fps=123 q=8.0 size=    5360kB time=106.88 bitrate= 410.8kbits/s    frame= 2740 fps=123 q=8.0 size=    5494kB time=109.60 bitrate= 410.6kbits/s    frame= 2810 fps=124 q=8.0 size=    5644kB time=112.40 bitrate= 411.4kbits/s    frame= 2877 fps=124 q=8.0 size=    5807kB time=115.08 bitrate= 413.4kbits/s    frame= 2947 fps=124 q=8.0 size=    5926kB time=117.88 bitrate= 411.8kbits/s    frame= 3025 fps=125 q=8.0 size=    6049kB time=121.00 bitrate= 409.5kbits/s    frame= 3135 fps=127 q=8.0 size=    6146kB time=125.40 bitrate= 401.5kbits/s    frame= 3145 fps=127 q=8.0 Lsize=    6155kB time=125.80 bitrate= 400.8kbits/s    
video:5046kB audio:984kB global headers:0kB muxing overhead 2.068774%
FFmpeg version UNKNOWN, Copyright (c) 2000-2008 Fabrice Bellard, et al.
  configuration: --prefix=/opt/local --disable-vhook --mandir=/opt/local/share/man --enable-shared --enable-pthreads --disable-mmx --cc=gcc-4.0 --enable-libmp3lame --enable-libvorbis --enable-libtheora --enable-gpl --enable-libfaac --enable-libfaad --enable-libxvid --enable-libx264 --enable-liba52
  libavutil version: 49.7.0
  libavcodec version: 51.60.0
  libavformat version: 52.18.0
  libavdevice version: 52.0.0
  built on Feb  9 2009 21:29:08, gcc: 4.0.1 (Apple Computer, Inc. build 5367)
Input #0, mov,mp4,m4a,3gp,3g2,mj2, from '/Users/Oliver/Documents/rails_projects/iPortfolio/hosted/public/system/sources/55/original/Superfly_II.m4v':
  Duration: 00:02:05.92, start: 0.000000, bitrate: 274 kb/s
    Stream #0.0(eng): Audio: libfaad, 44100 Hz, stereo
    Stream #0.1(eng): Video: h264, yuv420p, 320x211, 10.00 tb(r)
Output #0, mjpeg, to '/Users/Oliver/Documents/rails_projects/iPortfolio/hosted/public/system/sources/55/original/55-still.jpg':
    Stream #0.0(eng): Video: mjpeg, yuvj420p, 320x211, q=2-31, 200 kb/s,  1.00 tb(c)
Stream mapping:
  Stream #0.1 -> #0.0
Press [q] to stop encoding
[h264 @ 0x1003600]brainfart cropping not supported, this could look slightly wrong ...
frame=    1 fps=  0 q=3.6 Lsize=      10kB time=1.00 bitrate=  78.6kbits/s    
video:10kB audio:0kB global headers:0kB muxing overhead 0.000000%
** Exiting
=> Loading Rails...
[memcache-client] Could not load SystemTimer gem, falling back to Ruby's slower/unsafe timeout library: no such file to load -- system_timer
/Users/Oliver/Documents/rails_projects/iPortfolio/hosted/config/initializers/gateway.rb:1: warning: already initialized constant RAILS_ENV
** Rails loaded.
** Starting Workling::Remote::Invokers::ThreadedPoller...
** Use CTRL-C to stop.
** Exiting
=> Loading Rails...
[memcache-client] Could not load SystemTimer gem, falling back to Ruby's slower/unsafe timeout library: no such file to load -- system_timer
/Users/Oliver/Documents/rails_projects/iPortfolio/hosted/config/initializers/gateway.rb:1: warning: already initialized constant RAILS_ENV
** Rails loaded.
** Starting Workling::Remote::Invokers::ThreadedPoller...
** Use CTRL-C to stop.
** Exiting
=> Loading Rails...
[memcache-client] Could not load SystemTimer gem, falling back to Ruby's slower/unsafe timeout library: no such file to load -- system_timer
/Users/Oliver/Documents/rails_projects/iPortfolio/hosted/config/initializers/gateway.rb:1: warning: already initialized constant RAILS_ENV
** Rails loaded.
** Starting Workling::Remote::Invokers::ThreadedPoller...
** Use CTRL-C to stop.
** Exiting
=> Loading Rails...
[memcache-client] Could not load SystemTimer gem, falling back to Ruby's slower/unsafe timeout library: no such file to load -- system_timer
/Users/Oliver/Documents/rails_projects/iPortfolio/hosted/config/initializers/gateway.rb:1: warning: already initialized constant RAILS_ENV
** Rails loaded.
** Starting Workling::Remote::Invokers::ThreadedPoller...
** Use CTRL-C to stop.
/Users/Oliver/Documents/rails_projects/iPortfolio/hosted/vendor/plugins/workling/lib/workling/clients/memcache_queue_client.rb:68:in `raise_unless_connected!': config/workling.yml configured to connect to queue server on localhost:22122 for this environment. could not connect to queue server on this host:port. for starling users: pass starling the port with -p flag when starting it. If you don't want to use Starling, then explicitly set Workling::Remote.dispatcher (see README for an example) (Workling::QueueserverNotFoundError)
	from /Users/Oliver/Documents/rails_projects/iPortfolio/hosted/vendor/plugins/workling/lib/workling/clients/memcache_queue_client.rb:39:in `connect'
	from /Users/Oliver/Documents/rails_projects/iPortfolio/hosted/vendor/plugins/workling/script/../lib/workling/remote/invokers/threaded_poller.rb:81:in `clazz_listen'
	from /Users/Oliver/Documents/rails_projects/iPortfolio/hosted/vendor/plugins/workling/script/../lib/workling/remote/invokers/threaded_poller.rb:32:in `listen'
	from /Users/Oliver/Documents/rails_projects/iPortfolio/hosted/vendor/plugins/workling/script/../lib/workling/remote/invokers/threaded_poller.rb:32:in `initialize'
	from /Users/Oliver/Documents/rails_projects/iPortfolio/hosted/vendor/plugins/workling/script/../lib/workling/remote/invokers/threaded_poller.rb:32:in `new'
	from /Users/Oliver/Documents/rails_projects/iPortfolio/hosted/vendor/plugins/workling/script/../lib/workling/remote/invokers/threaded_poller.rb:32:in `listen'
	from /Users/Oliver/Documents/rails_projects/iPortfolio/hosted/vendor/plugins/workling/script/../lib/workling/remote/invokers/threaded_poller.rb:30:in `each'
	from /Users/Oliver/Documents/rails_projects/iPortfolio/hosted/vendor/plugins/workling/script/../lib/workling/remote/invokers/threaded_poller.rb:30:in `listen'
	 ... 6 levels...
	from /System/Library/Frameworks/Ruby.framework/Versions/1.8/usr/lib/ruby/gems/1.8/gems/daemons-1.0.9/lib/daemons/cmdline.rb:105:in `call'
	from /System/Library/Frameworks/Ruby.framework/Versions/1.8/usr/lib/ruby/gems/1.8/gems/daemons-1.0.9/lib/daemons/cmdline.rb:105:in `catch_exceptions'
	from /System/Library/Frameworks/Ruby.framework/Versions/1.8/usr/lib/ruby/gems/1.8/gems/daemons-1.0.9/lib/daemons.rb:135:in `run'
	from script/workling_client:17
** Exiting
=> Loading Rails...
[memcache-client] Could not load SystemTimer gem, falling back to Ruby's slower/unsafe timeout library: no such file to load -- system_timer
/Users/Oliver/Documents/rails_projects/iPortfolio/hosted/config/initializers/gateway.rb:1: warning: already initialized constant RAILS_ENV
** Rails loaded.
** Starting Workling::Remote::Invokers::ThreadedPoller...
** Use CTRL-C to stop.
** Exiting
=> Loading Rails...
[memcache-client] Could not load SystemTimer gem, falling back to Ruby's slower/unsafe timeout library: no such file to load -- system_timer
/Users/Oliver/Documents/rails_projects/iPortfolio/hosted/config/initializers/gateway.rb:1: warning: already initialized constant RAILS_ENV
** Rails loaded.
** Starting Workling::Remote::Invokers::ThreadedPoller...
** Use CTRL-C to stop.
FFmpeg version UNKNOWN, Copyright (c) 2000-2008 Fabrice Bellard, et al.
  configuration: --prefix=/opt/local --disable-vhook --mandir=/opt/local/share/man --enable-shared --enable-pthreads --disable-mmx --cc=gcc-4.0 --enable-libmp3lame --enable-libvorbis --enable-libtheora --enable-gpl --enable-libfaac --enable-libfaad --enable-libxvid --enable-libx264 --enable-liba52
  libavutil version: 49.7.0
  libavcodec version: 51.60.0
  libavformat version: 52.18.0
  libavdevice version: 52.0.0
  built on Feb  9 2009 21:29:08, gcc: 4.0.1 (Apple Computer, Inc. build 5367)
Input #0, mov,mp4,m4a,3gp,3g2,mj2, from '/Users/Oliver/Documents/rails_projects/iPortfolio/hosted/public/system/sources/72/original/Superfly_II.m4v':
  Duration: 00:02:05.92, start: 0.000000, bitrate: 274 kb/s
    Stream #0.0(eng): Audio: libfaad, 44100 Hz, stereo
    Stream #0.1(eng): Video: h264, yuv420p, 320x211, 10.00 tb(r)
WARNING: The bitrate parameter is set too low. It takes bits/s as argument, not kbits/s
Output #0, flv, to '/Users/Oliver/Documents/rails_projects/iPortfolio/hosted/public/system/sources/72/original/72-video.flv':
    Stream #0.0(eng): Video: flv, yuv420p, 640x480, q=2-31, 200 kb/s, 25.00 tb(c)
    Stream #0.1(eng): Audio: libmp3lame, 22050 Hz, stereo, 0 kb/s
Stream mapping:
  Stream #0.1 -> #0.0
  Stream #0.0 -> #0.1
Press [q] to stop encoding
[h264 @ 0x1003600]brainfart cropping not supported, this could look slightly wrong ...
frame=   10 fps=  0 q=8.0 size=      39kB time=0.39 bitrate= 805.4kbits/s    frame=   30 fps= 27 q=8.0 size=     116kB time=1.20 bitrate= 793.5kbits/s    frame=   55 fps= 34 q=8.0 size=     174kB time=2.20 bitrate= 648.1kbits/s    frame=   77 fps= 36 q=8.0 size=     272kB time=3.08 bitrate= 723.5kbits/s    frame=   97 fps= 37 q=8.0 size=     355kB time=3.88 bitrate= 749.9kbits/s    frame=  125 fps= 40 q=8.0 size=     432kB time=5.00 bitrate= 707.5kbits/s    frame=  152 fps= 41 q=8.0 size=     508kB time=6.08 bitrate= 684.5kbits/s    frame=  175 fps= 42 q=8.0 size=     614kB time=7.00 bitrate= 718.3kbits/s    frame=  200 fps= 42 q=8.0 size=     695kB time=8.00 bitrate= 711.9kbits/s    frame=  225 fps= 43 q=8.0 size=     778kB time=9.00 bitrate= 707.9kbits/s    frame=  250 fps= 43 q=8.0 size=     851kB time=10.00 bitrate= 697.4kbits/s    frame=  275 fps= 44 q=8.0 size=     930kB time=11.00 bitrate= 692.8kbits/s    frame=  300 fps= 44 q=8.0 size=    1004kB time=12.00 bitrate= 685.6kbits/s    frame=  325 fps= 44 q=8.0 size=    1092kB time=13.00 bitrate= 688.2kbits/s    frame=  350 fps= 44 q=8.0 size=    1173kB time=14.00 bitrate= 686.3kbits/s    frame=  375 fps= 45 q=8.0 size=    1259kB time=15.00 bitrate= 687.4kbits/s    frame=  397 fps= 45 q=8.0 size=    1335kB time=15.88 bitrate= 688.8kbits/s    frame=  412 fps= 44 q=8.0 size=    1378kB time=16.48 bitrate= 684.8kbits/s    frame=  437 fps= 44 q=8.0 size=    1486kB time=17.48 bitrate= 696.2kbits/s    frame=  462 fps= 44 q=8.0 size=    1557kB time=18.48 bitrate= 690.2kbits/s    frame=  487 fps= 44 q=8.0 size=    1632kB time=19.48 bitrate= 686.4kbits/s    frame=  512 fps= 45 q=8.0 size=    1702kB time=20.48 bitrate= 680.8kbits/s    frame=  537 fps= 45 q=8.0 size=    1768kB time=21.48 bitrate= 674.2kbits/s    frame=  565 fps= 45 q=8.0 size=    1837kB time=22.60 bitrate= 666.1kbits/s    frame=  590 fps= 45 q=8.0 size=    1901kB time=23.60 bitrate= 659.9kbits/s    frame=  610 fps= 45 q=8.0 size=    1965kB time=24.40 bitrate= 659.8kbits/s    frame=  635 fps= 45 q=8.0 size=    2036kB time=25.39 bitrate= 656.8kbits/s    frame=  660 fps= 45 q=8.0 size=    2105kB time=26.40 bitrate= 653.2kbits/s    frame=  685 fps= 45 q=8.0 size=    2177kB time=27.40 bitrate= 650.9kbits/s    frame=  707 fps= 45 q=8.0 size=    2255kB time=28.28 bitrate= 653.1kbits/s    frame=  730 fps= 45 q=8.0 size=    2334kB time=29.20 bitrate= 654.8kbits/s    frame=  755 fps= 45 q=8.0 size=    2407kB time=30.20 bitrate= 652.8kbits/s    frame=  780 fps= 45 q=8.0 size=    2473kB time=31.20 bitrate= 649.3kbits/s    frame=  805 fps= 46 q=8.0 size=    2544kB time=32.20 bitrate= 647.3kbits/s    frame=  830 fps= 46 q=8.0 size=    2613kB time=33.20 bitrate= 644.7kbits/s    frame=  855 fps= 46 q=8.0 size=    2681kB time=34.20 bitrate= 642.3kbits/s    frame=  880 fps= 46 q=8.0 size=    2750kB time=35.20 bitrate= 640.0kbits/s    frame=  905 fps= 46 q=8.0 size=    2847kB time=36.20 bitrate= 644.2kbits/s    frame=  932 fps= 46 q=8.0 size=    2924kB time=37.28 bitrate= 642.4kbits/s    frame=  955 fps= 46 q=8.0 size=    3044kB time=38.20 bitrate= 652.7kbits/s    frame=  975 fps= 46 q=8.0 size=    3149kB time=39.00 bitrate= 661.5kbits/s    frame=  997 fps= 46 q=8.0 size=    3282kB time=39.88 bitrate= 674.2kbits/s    frame= 1022 fps= 46 q=8.0 size=    3363kB time=40.88 bitrate= 673.8kbits/s    frame= 1047 fps= 46 q=8.0 size=    3470kB time=41.88 bitrate= 678.8kbits/s    frame= 1072 fps= 46 q=8.0 size=    3551kB time=42.88 bitrate= 678.3kbits/s    frame= 1097 fps= 46 q=8.0 size=    3655kB time=43.88 bitrate= 682.3kbits/s    frame= 1122 fps= 46 q=8.0 size=    3729kB time=44.88 bitrate= 680.7kbits/s    frame= 1150 fps= 46 q=8.0 size=    3802kB time=46.00 bitrate= 677.1kbits/s    frame= 1177 fps= 46 q=8.0 size=    3875kB time=47.08 bitrate= 674.2kbits/s    frame= 1205 fps= 46 q=8.0 size=    3995kB time=48.20 bitrate= 679.1kbits/s    frame= 1232 fps= 46 q=8.0 size=    4085kB time=49.28 bitrate= 679.1kbits/s    frame= 1260 fps= 47 q=8.0 size=    4152kB time=50.39 bitrate= 675.0kbits/s    frame= 1285 fps= 47 q=8.0 size=    4223kB time=51.40 bitrate= 673.1kbits/s    frame= 1310 fps= 47 q=8.0 size=    4295kB time=52.40 bitrate= 671.5kbits/s    frame= 1337 fps= 47 q=8.0 size=    4399kB time=53.48 bitrate= 673.8kbits/s    frame= 1367 fps= 47 q=8.0 size=    4490kB time=54.68 bitrate= 672.7kbits/s    frame= 1397 fps= 47 q=8.0 size=    4621kB time=55.88 bitrate= 677.4kbits/s    frame= 1425 fps= 47 q=8.0 size=    4723kB time=57.00 bitrate= 678.8kbits/s    frame= 1452 fps= 47 q=8.0 size=    4826kB time=58.08 bitrate= 680.6kbits/s    frame= 1477 fps= 47 q=8.0 size=    4945kB time=59.08 bitrate= 685.7kbits/s    frame= 1500 fps= 47 q=8.0 size=    5060kB time=60.00 bitrate= 690.9kbits/s    frame= 1527 fps= 47 q=8.0 size=    5141kB time=61.08 bitrate= 689.6kbits/s    frame= 1555 fps= 47 q=8.0 size=    5231kB time=62.20 bitrate= 688.9kbits/s    frame= 1582 fps= 48 q=8.0 size=    5295kB time=63.28 bitrate= 685.5kbits/s    frame= 1607 fps= 48 q=8.0 size=    5358kB time=64.28 bitrate= 682.9kbits/s    frame= 1632 fps= 48 q=8.0 size=    5427kB time=65.28 bitrate= 681.0kbits/s    frame= 1660 fps= 48 q=8.0 size=    5525kB time=66.38 bitrate= 681.8kbits/s    frame= 1685 fps= 48 q=8.0 size=    5612kB time=67.40 bitrate= 682.1kbits/s    frame= 1712 fps= 48 q=8.0 size=    5677kB time=68.48 bitrate= 679.1kbits/s    frame= 1740 fps= 48 q=8.0 size=    5743kB time=69.60 bitrate= 675.9kbits/s    frame= 1770 fps= 48 q=8.0 size=    5834kB time=70.80 bitrate= 675.0kbits/s    frame= 1797 fps= 48 q=8.0 size=    5900kB time=71.88 bitrate= 672.4kbits/s    frame= 1822 fps= 48 q=8.0 size=    5966kB time=72.88 bitrate= 670.6kbits/s    frame= 1840 fps= 48 q=8.0 size=    6029kB time=73.60 bitrate= 671.0kbits/s    frame= 1862 fps= 48 q=8.0 size=    6093kB time=74.48 bitrate= 670.2kbits/s    frame= 1885 fps= 48 q=8.0 size=    6159kB time=75.39 bitrate= 669.2kbits/s    frame= 1907 fps= 48 q=8.0 size=    6223kB time=76.28 bitrate= 668.3kbits/s    frame= 1932 fps= 48 q=8.0 size=    6290kB time=77.28 bitrate= 666.7kbits/s    frame= 1957 fps= 48 q=8.0 size=    6384kB time=78.28 bitrate= 668.1kbits/s    frame= 1985 fps= 48 q=8.0 size=    6459kB time=79.39 bitrate= 666.5kbits/s    frame= 2012 fps= 48 q=8.0 size=    6565kB time=80.48 bitrate= 668.2kbits/s    frame= 2045 fps= 48 q=8.0 size=    6649kB time=81.80 bitrate= 665.9kbits/s    frame= 2072 fps= 48 q=8.0 size=    6708kB time=82.88 bitrate= 663.0kbits/s    frame= 2097 fps= 48 q=8.0 size=    6764kB time=83.88 bitrate= 660.6kbits/s    frame= 2125 fps= 48 q=8.0 size=    6814kB time=85.00 bitrate= 656.8kbits/s    frame= 2155 fps= 48 q=8.0 size=    6889kB time=86.20 bitrate= 654.7kbits/s    frame= 2180 fps= 48 q=8.0 size=    6940kB time=87.20 bitrate= 651.9kbits/s    frame= 2207 fps= 48 q=8.0 size=    6998kB time=88.28 bitrate= 649.4kbits/s    frame= 2235 fps= 48 q=8.0 size=    7056kB time=89.40 bitrate= 646.6kbits/s    frame= 2260 fps= 48 q=8.0 size=    7134kB time=90.40 bitrate= 646.5kbits/s    frame= 2287 fps= 48 q=8.0 size=    7215kB time=91.48 bitrate= 646.1kbits/s    frame= 2315 fps= 49 q=8.0 size=    7274kB time=92.60 bitrate= 643.5kbits/s    frame= 2342 fps= 49 q=8.0 size=    7333kB time=93.68 bitrate= 641.3kbits/s    frame= 2365 fps= 49 q=8.0 size=    7424kB time=94.60 bitrate= 642.9kbits/s    frame= 2392 fps= 49 q=8.0 size=    7490kB time=95.68 bitrate= 641.3kbits/s    frame= 2417 fps= 49 q=8.0 size=    7578kB time=96.68 bitrate= 642.1kbits/s    frame= 2442 fps= 49 q=8.0 size=    7665kB time=97.68 bitrate= 642.9kbits/s    frame= 2467 fps= 49 q=8.0 size=    7727kB time=98.68 bitrate= 641.5kbits/s    frame= 2490 fps= 48 q=8.0 size=    7816kB time=99.60 bitrate= 642.9kbits/s    frame= 2520 fps= 49 q=8.0 size=    7885kB time=100.80 bitrate= 640.8kbits/s    frame= 2547 fps= 49 q=8.0 size=    7966kB time=101.88 bitrate= 640.5kbits/s    frame= 2575 fps= 49 q=8.0 size=    8048kB time=103.00 bitrate= 640.1kbits/s    frame= 2605 fps= 49 q=8.0 size=    8121kB time=104.20 bitrate= 638.5kbits/s    frame= 2635 fps= 49 q=8.0 size=    8196kB time=105.40 bitrate= 637.0kbits/s    frame= 2665 fps= 49 q=8.0 size=    8272kB time=106.60 bitrate= 635.7kbits/s    frame= 2695 fps= 49 q=8.0 size=    8378kB time=107.80 bitrate= 636.6kbits/s    frame= 2722 fps= 49 q=8.0 size=    8454kB time=108.88 bitrate= 636.0kbits/s    frame= 2750 fps= 49 q=8.0 size=    8531kB time=110.00 bitrate= 635.4kbits/s    frame= 2777 fps= 49 q=8.0 size=    8639kB time=111.08 bitrate= 637.1kbits/s    frame= 2802 fps= 49 q=8.0 size=    8715kB time=112.08 bitrate= 637.0kbits/s    frame= 2827 fps= 49 q=8.0 size=    8790kB time=113.08 bitrate= 636.8kbits/s    frame= 2857 fps= 49 q=8.0 size=    8879kB time=114.28 bitrate= 636.5kbits/s    frame= 2885 fps= 49 q=8.0 size=    8992kB time=115.40 bitrate= 638.3kbits/s    frame= 2910 fps= 49 q=8.0 size=    9052kB time=116.40 bitrate= 637.1kbits/s    frame= 2940 fps= 49 q=8.0 size=    9114kB time=117.60 bitrate= 634.9kbits/s    frame= 2970 fps= 49 q=8.0 size=    9200kB time=118.80 bitrate= 634.4kbits/s    frame= 2997 fps= 49 q=8.0 size=    9259kB time=119.88 bitrate= 632.7kbits/s    frame= 3027 fps= 49 q=8.0 size=    9321kB time=121.08 bitrate= 630.6kbits/s    frame= 3060 fps= 50 q=8.0 size=    9399kB time=122.38 bitrate= 629.1kbits/s    frame= 3095 fps= 50 q=8.0 size=    9440kB time=123.80 bitrate= 624.6kbits/s    frame= 3125 fps= 50 q=8.0 size=    9470kB time=125.00 bitrate= 620.6kbits/s    frame= 3145 fps= 50 q=8.0 Lsize=    9497kB time=125.80 bitrate= 618.4kbits/s    
video:8388kB audio:984kB global headers:0kB muxing overhead 1.331040%
FFmpeg version UNKNOWN, Copyright (c) 2000-2008 Fabrice Bellard, et al.
  configuration: --prefix=/opt/local --disable-vhook --mandir=/opt/local/share/man --enable-shared --enable-pthreads --disable-mmx --cc=gcc-4.0 --enable-libmp3lame --enable-libvorbis --enable-libtheora --enable-gpl --enable-libfaac --enable-libfaad --enable-libxvid --enable-libx264 --enable-liba52
  libavutil version: 49.7.0
  libavcodec version: 51.60.0
  libavformat version: 52.18.0
  libavdevice version: 52.0.0
  built on Feb  9 2009 21:29:08, gcc: 4.0.1 (Apple Computer, Inc. build 5367)
Input #0, mov,mp4,m4a,3gp,3g2,mj2, from '/Users/Oliver/Documents/rails_projects/iPortfolio/hosted/public/system/sources/72/original/Superfly_II.m4v':
  Duration: 00:02:05.92, start: 0.000000, bitrate: 274 kb/s
    Stream #0.0(eng): Audio: libfaad, 44100 Hz, stereo
    Stream #0.1(eng): Video: h264, yuv420p, 320x211, 10.00 tb(r)
Output #0, mjpeg, to '/Users/Oliver/Documents/rails_projects/iPortfolio/hosted/public/system/sources/72/original/72-still.jpg':
    Stream #0.0(eng): Video: mjpeg, yuvj420p, 320x211, q=2-31, 200 kb/s,  1.00 tb(c)
Stream mapping:
  Stream #0.1 -> #0.0
Press [q] to stop encoding
[h264 @ 0x1003600]brainfart cropping not supported, this could look slightly wrong ...
frame=    1 fps=  0 q=3.6 Lsize=      10kB time=1.00 bitrate=  78.6kbits/s    
video:10kB audio:0kB global headers:0kB muxing overhead 0.000000%
